<svg width="20" height="20" viewBox="0 0 20 20" fill="none" xmlns="http://www.w3.org/2000/svg">
<path d="M1.76667 6.50833C2.39896 9.37757 3.83884 12.0061 5.91638 14.0836C7.99393 16.1612 10.6224 17.601 13.4917 18.2333C14.3936 18.415 15.3308 18.2556 16.1221 17.7861C16.9133 17.3166 17.5022 16.5703 17.775 15.6917L18.2 14.3583L14.0333 12.2833L12.05 14.2667C10.6408 13.6593 9.3555 12.7978 8.25833 11.725C7.20046 10.6244 6.35314 9.33927 5.75833 7.93333L7.71667 5.94999L5.64167 1.78333L4.30833 2.20833C3.42623 2.48128 2.67731 3.07281 2.20746 3.8677C1.73761 4.66259 1.58048 5.60392 1.76667 6.50833Z" fill="black"/>
</svg>
